<mxfile host="app.diagrams.net" modified="2022-03-03T09:03:38.567Z" agent="5.0 (Windows NT 10.0; Win64; x64) AppleWebKit/537.36 (KHTML, like Gecko) Chrome/98.0.4758.102 Safari/537.36" etag="z8pLBJLAdUnQJdB8hZhQ" version="16.6.5" type="github">
  <diagram id="ASQJWjS9HqhzVyxdPm7n" name="Page-1">
    <mxGraphModel dx="1447" dy="803" grid="1" gridSize="10" guides="1" tooltips="1" connect="1" arrows="1" fold="1" page="1" pageScale="1" pageWidth="850" pageHeight="1100" math="0" shadow="0">
      <root>
        <mxCell id="0" />
        <mxCell id="1" parent="0" />
        <mxCell id="d_abIgiQAHqv3IRHJHrY-3" value="" style="edgeStyle=orthogonalEdgeStyle;rounded=0;orthogonalLoop=1;jettySize=auto;html=1;" edge="1" parent="1" source="d_abIgiQAHqv3IRHJHrY-1" target="d_abIgiQAHqv3IRHJHrY-2">
          <mxGeometry relative="1" as="geometry" />
        </mxCell>
        <mxCell id="d_abIgiQAHqv3IRHJHrY-1" value="Mulai" style="strokeWidth=2;html=1;shape=mxgraph.flowchart.start_2;whiteSpace=wrap;" vertex="1" parent="1">
          <mxGeometry x="180" y="90" width="100" height="100" as="geometry" />
        </mxCell>
        <mxCell id="d_abIgiQAHqv3IRHJHrY-5" value="" style="edgeStyle=orthogonalEdgeStyle;rounded=0;orthogonalLoop=1;jettySize=auto;html=1;" edge="1" parent="1" source="d_abIgiQAHqv3IRHJHrY-2" target="d_abIgiQAHqv3IRHJHrY-4">
          <mxGeometry relative="1" as="geometry" />
        </mxCell>
        <mxCell id="d_abIgiQAHqv3IRHJHrY-2" value="input bulan" style="shape=parallelogram;perimeter=parallelogramPerimeter;whiteSpace=wrap;html=1;fixedSize=1;strokeWidth=2;" vertex="1" parent="1">
          <mxGeometry x="170" y="290" width="120" height="60" as="geometry" />
        </mxCell>
        <mxCell id="d_abIgiQAHqv3IRHJHrY-7" value="" style="edgeStyle=orthogonalEdgeStyle;rounded=0;orthogonalLoop=1;jettySize=auto;html=1;" edge="1" parent="1" source="d_abIgiQAHqv3IRHJHrY-4" target="d_abIgiQAHqv3IRHJHrY-6">
          <mxGeometry relative="1" as="geometry" />
        </mxCell>
        <mxCell id="d_abIgiQAHqv3IRHJHrY-4" value="input tanggal" style="shape=parallelogram;perimeter=parallelogramPerimeter;whiteSpace=wrap;html=1;fixedSize=1;strokeWidth=2;" vertex="1" parent="1">
          <mxGeometry x="170" y="430" width="120" height="60" as="geometry" />
        </mxCell>
        <mxCell id="d_abIgiQAHqv3IRHJHrY-8" value="no" style="edgeStyle=orthogonalEdgeStyle;rounded=0;orthogonalLoop=1;jettySize=auto;html=1;entryX=0;entryY=0.5;entryDx=0;entryDy=0;" edge="1" parent="1" source="d_abIgiQAHqv3IRHJHrY-6" target="d_abIgiQAHqv3IRHJHrY-2">
          <mxGeometry relative="1" as="geometry">
            <Array as="points">
              <mxPoint x="90" y="600" />
              <mxPoint x="90" y="320" />
            </Array>
          </mxGeometry>
        </mxCell>
        <mxCell id="d_abIgiQAHqv3IRHJHrY-18" value="yes" style="edgeStyle=orthogonalEdgeStyle;rounded=0;orthogonalLoop=1;jettySize=auto;html=1;" edge="1" parent="1" source="d_abIgiQAHqv3IRHJHrY-6" target="d_abIgiQAHqv3IRHJHrY-17">
          <mxGeometry relative="1" as="geometry" />
        </mxCell>
        <mxCell id="d_abIgiQAHqv3IRHJHrY-6" value="if bulan &amp;gt;=1 || bulan &amp;lt;= 12" style="rhombus;whiteSpace=wrap;html=1;strokeWidth=2;" vertex="1" parent="1">
          <mxGeometry x="140" y="540" width="180" height="120" as="geometry" />
        </mxCell>
        <mxCell id="d_abIgiQAHqv3IRHJHrY-12" value="yes" style="edgeStyle=orthogonalEdgeStyle;rounded=0;orthogonalLoop=1;jettySize=auto;html=1;" edge="1" parent="1" source="d_abIgiQAHqv3IRHJHrY-9" target="d_abIgiQAHqv3IRHJHrY-11">
          <mxGeometry relative="1" as="geometry" />
        </mxCell>
        <mxCell id="d_abIgiQAHqv3IRHJHrY-26" value="no" style="edgeStyle=orthogonalEdgeStyle;rounded=0;orthogonalLoop=1;jettySize=auto;html=1;" edge="1" parent="1" source="d_abIgiQAHqv3IRHJHrY-9" target="d_abIgiQAHqv3IRHJHrY-25">
          <mxGeometry relative="1" as="geometry" />
        </mxCell>
        <mxCell id="d_abIgiQAHqv3IRHJHrY-9" value="if bulan == 1" style="rhombus;whiteSpace=wrap;html=1;strokeWidth=2;" vertex="1" parent="1">
          <mxGeometry x="430" y="90" width="100" height="100" as="geometry" />
        </mxCell>
        <mxCell id="d_abIgiQAHqv3IRHJHrY-14" value="yes&lt;br&gt;" style="edgeStyle=orthogonalEdgeStyle;rounded=0;orthogonalLoop=1;jettySize=auto;html=1;" edge="1" parent="1" source="d_abIgiQAHqv3IRHJHrY-11" target="d_abIgiQAHqv3IRHJHrY-13">
          <mxGeometry relative="1" as="geometry" />
        </mxCell>
        <mxCell id="d_abIgiQAHqv3IRHJHrY-23" value="no" style="edgeStyle=orthogonalEdgeStyle;rounded=0;orthogonalLoop=1;jettySize=auto;html=1;" edge="1" parent="1" source="d_abIgiQAHqv3IRHJHrY-11" target="d_abIgiQAHqv3IRHJHrY-22">
          <mxGeometry relative="1" as="geometry" />
        </mxCell>
        <mxCell id="d_abIgiQAHqv3IRHJHrY-11" value="if tanggal &amp;gt;= 1 &amp;amp;&amp;amp; &amp;lt;= 19" style="rhombus;whiteSpace=wrap;html=1;strokeWidth=2;" vertex="1" parent="1">
          <mxGeometry x="400" y="260" width="160" height="120" as="geometry" />
        </mxCell>
        <mxCell id="d_abIgiQAHqv3IRHJHrY-13" value="zodiak = &quot;Capricorn&quot;" style="whiteSpace=wrap;html=1;strokeWidth=2;" vertex="1" parent="1">
          <mxGeometry x="420" y="470" width="120" height="60" as="geometry" />
        </mxCell>
        <mxCell id="d_abIgiQAHqv3IRHJHrY-19" value="yes" style="edgeStyle=orthogonalEdgeStyle;rounded=0;orthogonalLoop=1;jettySize=auto;html=1;entryX=0;entryY=0.5;entryDx=0;entryDy=0;" edge="1" parent="1" source="d_abIgiQAHqv3IRHJHrY-17" target="d_abIgiQAHqv3IRHJHrY-9">
          <mxGeometry relative="1" as="geometry">
            <Array as="points">
              <mxPoint x="390" y="760" />
              <mxPoint x="390" y="140" />
            </Array>
          </mxGeometry>
        </mxCell>
        <mxCell id="d_abIgiQAHqv3IRHJHrY-20" value="no" style="edgeStyle=orthogonalEdgeStyle;rounded=0;orthogonalLoop=1;jettySize=auto;html=1;entryX=1;entryY=0.5;entryDx=0;entryDy=0;" edge="1" parent="1" source="d_abIgiQAHqv3IRHJHrY-17" target="d_abIgiQAHqv3IRHJHrY-4">
          <mxGeometry relative="1" as="geometry">
            <Array as="points">
              <mxPoint x="350" y="760" />
              <mxPoint x="350" y="460" />
            </Array>
          </mxGeometry>
        </mxCell>
        <mxCell id="d_abIgiQAHqv3IRHJHrY-17" value="if tanggal &amp;gt;=1 || &amp;lt;= 31" style="rhombus;whiteSpace=wrap;html=1;strokeWidth=2;" vertex="1" parent="1">
          <mxGeometry x="140" y="700" width="180" height="120" as="geometry" />
        </mxCell>
        <mxCell id="d_abIgiQAHqv3IRHJHrY-22" value="zodiak = &quot;Aquarius" style="whiteSpace=wrap;html=1;strokeWidth=2;" vertex="1" parent="1">
          <mxGeometry x="590" y="470" width="120" height="60" as="geometry" />
        </mxCell>
        <mxCell id="d_abIgiQAHqv3IRHJHrY-28" value="yes" style="edgeStyle=orthogonalEdgeStyle;rounded=0;orthogonalLoop=1;jettySize=auto;html=1;" edge="1" parent="1" source="d_abIgiQAHqv3IRHJHrY-25" target="d_abIgiQAHqv3IRHJHrY-27">
          <mxGeometry relative="1" as="geometry" />
        </mxCell>
        <mxCell id="d_abIgiQAHqv3IRHJHrY-25" value="if bulan == 2" style="rhombus;whiteSpace=wrap;html=1;strokeWidth=2;" vertex="1" parent="1">
          <mxGeometry x="730" y="90" width="100" height="100" as="geometry" />
        </mxCell>
        <mxCell id="d_abIgiQAHqv3IRHJHrY-30" value="yes" style="edgeStyle=orthogonalEdgeStyle;rounded=0;orthogonalLoop=1;jettySize=auto;html=1;entryX=1;entryY=0.5;entryDx=0;entryDy=0;" edge="1" parent="1" source="d_abIgiQAHqv3IRHJHrY-27" target="d_abIgiQAHqv3IRHJHrY-22">
          <mxGeometry relative="1" as="geometry" />
        </mxCell>
        <mxCell id="d_abIgiQAHqv3IRHJHrY-32" value="no" style="edgeStyle=orthogonalEdgeStyle;rounded=0;orthogonalLoop=1;jettySize=auto;html=1;" edge="1" parent="1" source="d_abIgiQAHqv3IRHJHrY-27" target="d_abIgiQAHqv3IRHJHrY-31">
          <mxGeometry relative="1" as="geometry" />
        </mxCell>
        <mxCell id="d_abIgiQAHqv3IRHJHrY-27" value="if tanggal &amp;gt;= 1 &amp;amp;&amp;amp; &amp;lt;= 18" style="rhombus;whiteSpace=wrap;html=1;strokeWidth=2;" vertex="1" parent="1">
          <mxGeometry x="680" y="230" width="200" height="100" as="geometry" />
        </mxCell>
        <mxCell id="d_abIgiQAHqv3IRHJHrY-31" value="zodiak = &quot;Pisces&quot;" style="whiteSpace=wrap;html=1;strokeWidth=2;" vertex="1" parent="1">
          <mxGeometry x="910" y="470" width="120" height="60" as="geometry" />
        </mxCell>
      </root>
    </mxGraphModel>
  </diagram>
</mxfile>
